  0
SECTION
  2
HEADER
  9
$ACADVER
  1
AC1009
  9
$EXTMIN
 10
0.0
 20
0.0
 30
0.0
  9
$EXTMAX
 10
1000.0
 20
1000.0
 30
0.0
  9
$FILLMODE
 70
 0
  9
$SPLFRAME
 70
 1
  0
ENDSEC
  0
SECTION
  2
TABLES
  0
TABLE
  2
LAYER
 70
1
  0
LAYER
  2
0
 70
     0
 62
     7
  6
CONTINUOUS
  0
ENDTAB
  0
ENDSEC
  0
SECTION
  2
ENTITIES
  0
POLYLINE
  8
0
 62
     7
 66
     1
 10
0
 20
0
 30
0.0
 70
     1
 40
0
 41
0
  0
VERTEX
  8
0
 10
0
 20
-0
 30
0.0
 40
0
 41
0
  0
VERTEX
  8
0
 10
11.1111
 20
-0
 30
0.0
 40
0
 41
0
  0
VERTEX
  8
0
 10
11.1111
 20
3.33333
 30
0.0
 40
0
 41
0
  0
VERTEX
  8
0
 10
0
 20
3.33333
 30
0.0
 40
0
 41
0
  0
VERTEX
  8
0
 10
0
 20
-0
 30
0.0
 40
0
 41
0
  0
SEQEND
 8
0
  0
POLYLINE
  8
0
 62
     0
 66
     1
 10
0
 20
0
 30
0.0
 70
     1
 40
0
 41
0
  0
VERTEX
  8
0
 10
1.72874
 20
2.70335
 30
0.0
 40
0
 41
0
  0
VERTEX
  8
0
 10
1.77647
 20
2.71669
 30
0.0
 40
0
 41
0
  0
VERTEX
  8
0
 10
1.82249
 20
2.7354
 30
0.0
 40
0
 41
0
  0
VERTEX
  8
0
 10
1.89806
 20
2.73389
 30
0.0
 40
0
 41
0
  0
VERTEX
  8
0
 10
1.97276
 20
2.72331
 30
0.0
 40
0
 41
0
  0
VERTEX
  8
0
 10
2.00575
 20
2.70942
 30
0.0
 40
0
 41
0
  0
VERTEX
  8
0
 10
2.03228
 20
2.68283
 30
0.0
 40
0
 41
0
  0
VERTEX
  8
0
 10
2.05963
 20
2.65869
 30
0.0
 40
0
 41
0
  0
VERTEX
  8
0
 10
2.09517
 20
2.65196
 30
0.0
 40
0
 41
0
  0
VERTEX
  8
0
 10
2.1339
 20
2.67329
 30
0.0
 40
0
 41
0
  0
VERTEX
  8
0
 10
2.17008
 20
2.70003
 30
0.0
 40
0
 41
0
  0
VERTEX
  8
0
 10
2.20751
 20
2.72385
 30
0.0
 40
0
 41
0
  0
VERTEX
  8
0
 10
2.25028
 20
2.73611
 30
0.0
 40
0
 41
0
  0
VERTEX
  8
0
 10
2.37261
 20
2.73503
 30
0.0
 40
0
 41
0
  0
VERTEX
  8
0
 10
2.46485
 20
2.6951
 30
0.0
 40
0
 41
0
  0
VERTEX
  8
0
 10
2.54943
 20
2.63781
 30
0.0
 40
0
 41
0
  0
VERTEX
  8
0
 10
2.61339
 20
2.56196
 30
0.0
 40
0
 41
0
  0
VERTEX
  8
0
 10
2.64361
 20
2.46636
 30
0.0
 40
0
 41
0
  0
VERTEX
  8
0
 10
2.74262
 20
2.53901
 30
0.0
 40
0
 41
0
  0
VERTEX
  8
0
 10
2.83594
 20
2.54226
 30
0.0
 40
0
 41
0
  0
VERTEX
  8
0
 10
2.92947
 20
2.5415
 30
0.0
 40
0
 41
0
  0
VERTEX
  8
0
 10
2.94575
 20
2.54042
 30
0.0
 40
0
 41
0
  0
VERTEX
  8
0
 10
2.95947
 20
2.53276
 30
0.0
 40
0
 41
0
  0
VERTEX
  8
0
 10
2.97185
 20
2.52197
 30
0.0
 40
0
 41
0
  0
VERTEX
  8
0
 10
2.98432
 20
2.5115
 30
0.0
 40
0
 41
0
  0
VERTEX
  8
0
 10
3.04731
 20
2.47396
 30
0.0
 40
0
 41
0
  0
VERTEX
  8
0
 10
3.09825
 20
2.42096
 30
0.0
 40
0
 41
0
  0
VERTEX
  8
0
 10
3.13747
 20
2.35769
 30
0.0
 40
0
 41
0
  0
VERTEX
  8
0
 10
3.16558
 20
2.28928
 30
0.0
 40
0
 41
0
  0
VERTEX
  8
0
 10
3.16721
 20
2.24203
 30
0.0
 40
0
 41
0
  0
VERTEX
  8
0
 10
3.16758
 20
2.19439
 30
0.0
 40
0
 41
0
  0
VERTEX
  8
0
 10
3.16249
 20
2.14757
 30
0.0
 40
0
 41
0
  0
VERTEX
  8
0
 10
3.14751
 20
2.10265
 30
0.0
 40
0
 41
0
  0
VERTEX
  8
0
 10
3.12299
 20
2.04921
 30
0.0
 40
0
 41
0
  0
VERTEX
  8
0
 10
3.09831
 20
1.99544
 30
0.0
 40
0
 41
0
  0
VERTEX
  8
0
 10
3.06868
 20
1.9451
 30
0.0
 40
0
 41
0
  0
VERTEX
  8
0
 10
3.02929
 20
1.90169
 30
0.0
 40
0
 41
0
  0
VERTEX
  8
0
 10
2.94937
 20
1.81483
 30
0.0
 40
0
 41
0
  0
VERTEX
  8
0
 10
2.86415
 20
1.73281
 30
0.0
 40
0
 41
0
  0
VERTEX
  8
0
 10
2.83132
 20
1.69038
 30
0.0
 40
0
 41
0
  0
VERTEX
  8
0
 10
2.81239
 20
1.64035
 30
0.0
 40
0
 41
0
  0
VERTEX
  8
0
 10
2.79915
 20
1.58735
 30
0.0
 40
0
 41
0
  0
VERTEX
  8
0
 10
2.78347
 20
1.53581
 30
0.0
 40
0
 41
0
  0
VERTEX
  8
0
 10
2.76144
 20
1.42899
 30
0.0
 40
0
 41
0
  0
VERTEX
  8
0
 10
2.74892
 20
1.32096
 30
0.0
 40
0
 41
0
  0
VERTEX
  8
0
 10
2.73426
 20
1.25798
 30
0.0
 40
0
 41
0
  0
VERTEX
  8
0
 10
2.72222
 20
1.19444
 30
0.0
 40
0
 41
0
  0
VERTEX
  8
0
 10
2.72265
 20
0.930826
 30
0.0
 40
0
 41
0
  0
VERTEX
  8
0
 10
2.74653
 20
0.771431
 30
0.0
 40
0
 41
0
  0
VERTEX
  8
0
 10
2.76486
 20
0.611382
 30
0.0
 40
0
 41
0
  0
VERTEX
  8
0
 10
2.47222
 20
0.611111
 30
0.0
 40
0
 41
0
  0
VERTEX
  8
0
 10
2.4739
 20
1.06803
 30
0.0
 40
0
 41
0
  0
VERTEX
  8
0
 10
2.48579
 20
1.15001
 30
0.0
 40
0
 41
0
  0
VERTEX
  8
0
 10
2.48876
 20
1.23291
 30
0.0
 40
0
 41
0
  0
VERTEX
  8
0
 10
2.49989
 20
1.30279
 30
0.0
 40
0
 41
0
  0
VERTEX
  8
0
 10
2.49983
 20
1.37392
 30
0.0
 40
0
 41
0
  0
VERTEX
  8
0
 10
2.50846
 20
1.41368
 30
0.0
 40
0
 41
0
  0
VERTEX
  8
0
 10
2.51969
 20
1.45307
 30
0.0
 40
0
 41
0
  0
VERTEX
  8
0
 10
2.53581
 20
1.49035
 30
0.0
 40
0
 41
0
  0
VERTEX
  8
0
 10
2.55919
 20
1.5236
 30
0.0
 40
0
 41
0
  0
VERTEX
  8
0
 10
2.59179
 20
1.56278
 30
0.0
 40
0
 41
0
  0
VERTEX
  8
0
 10
2.61837
 20
1.60628
 30
0.0
 40
0
 41
0
  0
VERTEX
  8
0
 10
2.64199
 20
1.65186
 30
0.0
 40
0
 41
0
  0
VERTEX
  8
0
 10
2.66585
 20
1.69694
 30
0.0
 40
0
 41
0
  0
VERTEX
  8
0
 10
2.66639
 20
1.76156
 30
0.0
 40
0
 41
0
  0
VERTEX
  8
0
 10
2.67512
 20
1.82514
 30
0.0
 40
0
 41
0
  0
VERTEX
  8
0
 10
2.6811
 20
1.87999
 30
0.0
 40
0
 41
0
  0
VERTEX
  8
0
 10
2.68028
 20
1.93549
 30
0.0
 40
0
 41
0
  0
VERTEX
  8
0
 10
2.68104
 20
1.99078
 30
0.0
 40
0
 41
0
  0
VERTEX
  8
0
 10
2.69179
 20
2.04486
 30
0.0
 40
0
 41
0
  0
VERTEX
  8
0
 10
2.69488
 20
2.09364
 30
0.0
 40
0
 41
0
  0
VERTEX
  8
0
 10
2.69401
 20
2.14274
 30
0.0
 40
0
 41
0
  0
VERTEX
  8
0
 10
2.69553
 20
2.19151
 30
0.0
 40
0
 41
0
  0
VERTEX
  8
0
 10
2.70568
 20
2.23931
 30
0.0
 40
0
 41
0
  0
VERTEX
  8
0
 10
2.70899
 20
2.31076
 30
0.0
 40
0
 41
0
  0
VERTEX
  8
0
 10
2.70708
 20
2.38238
 30
0.0
 40
0
 41
0
  0
VERTEX
  8
0
 10
2.69
 20
2.36279
 30
0.0
 40
0
 41
0
  0
VERTEX
  8
0
 10
2.68039
 20
2.33931
 30
0.0
 40
0
 41
0
  0
VERTEX
  8
0
 10
2.67458
 20
2.31401
 30
0.0
 40
0
 41
0
  0
VERTEX
  8
0
 10
2.66889
 20
2.28874
 30
0.0
 40
0
 41
0
  0
VERTEX
  8
0
 10
2.66721
 20
2.16288
 30
0.0
 40
0
 41
0
  0
VERTEX
  8
0
 10
2.65597
 20
2.03803
 30
0.0
 40
0
 41
0
  0
VERTEX
  8
0
 10
2.64182
 20
1.92914
 30
0.0
 40
0
 41
0
  0
VERTEX
  8
0
 10
2.63872
 20
1.81944
 30
0.0
 40
0
 41
0
  0
VERTEX
  8
0
 10
2.58333
 20
1.81928
 30
0.0
 40
0
 41
0
  0
VERTEX
  8
0
 10
2.58886
 20
1.93886
 30
0.0
 40
0
 41
0
  0
VERTEX
  8
0
 10
2.61014
 20
2.05681
 30
0.0
 40
0
 41
0
  0
VERTEX
  8
0
 10
2.61139
 20
2.1334
 30
0.0
 40
0
 41
0
  0
VERTEX
  8
0
 10
2.625
 20
2.20833
 30
0.0
 40
0
 41
0
  0
VERTEX
  8
0
 10
2.63921
 20
2.29085
 30
0.0
 40
0
 41
0
  0
VERTEX
  8
0
 10
2.63872
 20
2.37517
 30
0.0
 40
0
 41
0
  0
VERTEX
  8
0
 10
2.61182
 20
2.375
 30
0.0
 40
0
 41
0
  0
VERTEX
  8
0
 10
2.59956
 20
2.23893
 30
0.0
 40
0
 41
0
  0
VERTEX
  8
0
 10
2.57753
 20
2.10374
 30
0.0
 40
0
 41
0
  0
VERTEX
  8
0
 10
2.55843
 20
1.96826
 30
0.0
 40
0
 41
0
  0
VERTEX
  8
0
 10
2.55512
 20
1.83137
 30
0.0
 40
0
 41
0
  0
VERTEX
  8
0
 10
2.51942
 20
1.83485
 30
0.0
 40
0
 41
0
  0
VERTEX
  8
0
 10
2.48583
 20
1.84694
 30
0.0
 40
0
 41
0
  0
VERTEX
  8
0
 10
2.50467
 20
1.94081
 30
0.0
 40
0
 41
0
  0
VERTEX
  8
0
 10
2.51986
 20
2.03554
 30
0.0
 40
0
 41
0
  0
VERTEX
  8
0
 10
2.52746
 20
2.08274
 30
0.0
 40
0
 41
0
  0
VERTEX
  8
0
 10
2.52767
 20
2.13075
 30
0.0
 40
0
 41
0
  0
VERTEX
  8
0
 10
2.52864
 20
2.17854
 30
0.0
 40
0
 41
0
  0
VERTEX
  8
0
 10
2.53874
 20
2.22515
 30
0.0
 40
0
 41
0
  0
VERTEX
  8
0
 10
2.55501
 20
2.30615
 30
0.0
 40
0
 41
0
  0
VERTEX
  8
0
 10
2.55556
 20
2.38906
 30
0.0
 40
0
 41
0
  0
VERTEX
  8
0
 10
2.52806
 20
2.38906
 30
0.0
 40
0
 41
0
  0
VERTEX
  8
0
 10
2.51926
 20
2.25418
 30
0.0
 40
0
 41
0
  0
VERTEX
  8
0
 10
2.49821
 20
2.12033
 30
0.0
 40
0
 41
0
  0
VERTEX
  8
0
 10
2.47775
 20
1.98639
 30
0.0
 40
0
 41
0
  0
VERTEX
  8
0
 10
2.47097
 20
1.85124
 30
0.0
 40
0
 41
0
  0
VERTEX
  8
0
 10
2.44689
 20
1.83485
 30
0.0
 40
0
 41
0
  0
VERTEX
  8
0
 10
2.41721
 20
1.83068
 30
0.0
 40
0
 41
0
  0
VERTEX
  8
0
 10
2.41618
 20
1.95344
 30
0.0
 40
0
 41
0
  0
VERTEX
  8
0
 10
2.44276
 20
2.07183
 30
0.0
 40
0
 41
0
  0
VERTEX
  8
0
 10
2.4636
 20
2.24072
 30
0.0
 40
0
 41
0
  0
VERTEX
  8
0
 10
2.48557
 20
2.40918
 30
0.0
 40
0
 41
0
  0
VERTEX
  8
0
 10
2.45958
 20
2.37967
 30
0.0
 40
0
 41
0
  0
VERTEX
  8
0
 10
2.44715
 20
2.34412
 30
0.0
 40
0
 41
0
  0
VERTEX
  8
0
 10
2.44325
 20
2.3055
 30
0.0
 40
0
 41
0
  0
VERTEX
  8
0
 10
2.44276
 20
2.26654
 30
0.0
 40
0
 41
0
  0
VERTEX
  8
0
 10
2.41411
 20
2.14654
 30
0.0
 40
0
 41
0
  0
VERTEX
  8
0
 10
2.39139
 20
2.02458
 30
0.0
 40
0
 41
0
  0
VERTEX
  8
0
 10
2.38226
 20
1.91818
 30
0.0
 40
0
 41
0
  0
VERTEX
  8
0
 10
2.34847
 20
1.81706
 30
0.0
 40
0
 41
0
  0
VERTEX
  8
0
 10
2.34668
 20
1.76975
 30
0.0
 40
0
 41
0
  0
VERTEX
  8
0
 10
2.34619
 20
1.72211
 30
0.0
 40
0
 41
0
  0
VERTEX
  8
0
 10
2.35129
 20
1.67535
 30
0.0
 40
0
 41
0
  0
VERTEX
  8
0
 10
2.36637
 20
1.63043
 30
0.0
 40
0
 41
0
  0
VERTEX
  8
0
 10
2.41249
 20
1.52192
 30
0.0
 40
0
 41
0
  0
VERTEX
  8
0
 10
2.42833
 20
1.40653
 30
0.0
 40
0
 41
0
  0
VERTEX
  8
0
 10
2.41721
 20
1.33946
 30
0.0
 40
0
 41
0
  0
VERTEX
  8
0
 10
2.40847
 20
1.27181
 30
0.0
 40
0
 41
0
  0
VERTEX
  8
0
 10
2.38775
 20
1.17475
 30
0.0
 40
0
 41
0
  0
VERTEX
  8
0
 10
2.36664
 20
1.07764
 30
0.0
 40
0
 41
0
  0
VERTEX
  8
0
 10
2.33176
 20
0.908962
 30
0.0
 40
0
 41
0
  0
VERTEX
  8
0
 10
2.30279
 20
0.739312
 30
0.0
 40
0
 41
0
  0
VERTEX
  8
0
 10
2.26389
 20
0.610406
 30
0.0
 40
0
 41
0
  0
VERTEX
  8
0
 10
2.18625
 20
0.611382
 30
0.0
 40
0
 41
0
  0
VERTEX
  8
0
 10
2.15306
 20
0.644314
 30
0.0
 40
0
 41
0
  0
VERTEX
  8
0
 10
2.15267
 20
0.713162
 30
0.0
 40
0
 41
0
  0
VERTEX
  8
0
 10
2.14128
 20
0.780707
 30
0.0
 40
0
 41
0
  0
VERTEX
  8
0
 10
2.13894
 20
0.902669
 30
0.0
 40
0
 41
0
  0
VERTEX
  8
0
 10
2.13624
 20
1.02458
 30
0.0
 40
0
 41
0
  0
VERTEX
  8
0
 10
2.125
 20
1.15278
 30
0.0
 40
0
 41
0
  0
VERTEX
  8
0
 10
2.11376
 20
1.28098
 30
0.0
 40
0
 41
0
  0
VERTEX
  8
0
 10
2.11083
 20
1.62554
 30
0.0
 40
0
 41
0
  0
VERTEX
  8
0
 10
2.1186
 20
1.69878
 30
0.0
 40
0
 41
0
  0
VERTEX
  8
0
 10
2.14486
 20
1.76693
 30
0.0
 40
0
 41
0
  0
VERTEX
  8
0
 10
2.17969
 20
1.83257
 30
0.0
 40
0
 41
0
  0
VERTEX
  8
0
 10
2.21322
 20
1.89822
 30
0.0
 40
0
 41
0
  0
VERTEX
  8
0
 10
2.22244
 20
1.93408
 30
0.0
 40
0
 41
0
  0
VERTEX
  8
0
 10
2.2225
 20
1.97168
 30
0.0
 40
0
 41
0
  0
VERTEX
  8
0
 10
2.22179
 20
2.15207
 30
0.0
 40
0
 41
0
  0
VERTEX
  8
0
 10
2.20264
 20
2.21957
 30
0.0
 40
0
 41
0
  0
VERTEX
  8
0
 10
2.16769
 20
2.28071
 30
0.0
 40
0
 41
0
  0
VERTEX
  8
0
 10
2.1186
 20
2.33029
 30
0.0
 40
0
 41
0
  0
VERTEX
  8
0
 10
2.05707
 20
2.36307
 30
0.0
 40
0
 41
0
  0
VERTEX
  8
0
 10
1.96892
 20
2.29497
 30
0.0
 40
0
 41
0
  0
VERTEX
  8
0
 10
1.92415
 20
2.19911
 30
0.0
 40
0
 41
0
  0
VERTEX
  8
0
 10
1.90321
 20
2.09554
 30
0.0
 40
0
 41
0
  0
VERTEX
  8
0
 10
1.90474
 20
1.98942
 30
0.0
 40
0
 41
0
  0
VERTEX
  8
0
 10
1.92751
 20
1.88569
 30
0.0
 40
0
 41
0
  0
VERTEX
  8
0
 10
1.93685
 20
1.85021
 30
0.0
 40
0
 41
0
  0
VERTEX
  8
0
 10
1.95437
 20
1.81819
 30
0.0
 40
0
 41
0
  0
VERTEX
  8
0
 10
1.97424
 20
1.78717
 30
0.0
 40
0
 41
0
  0
VERTEX
  8
0
 10
1.99083
 20
1.75444
 30
0.0
 40
0
 41
0
  0
VERTEX
  8
0
 10
2.01426
 20
1.62885
 30
0.0
 40
0
 41
0
  0
VERTEX
  8
0
 10
2.01389
 20
1.5
 30
0.0
 40
0
 41
0
  0
VERTEX
  8
0
 10
2.01307
 20
1.27902
 30
0.0
 40
0
 41
0
  0
VERTEX
  8
0
 10
1.99908
 20
1.11399
 30
0.0
 40
0
 41
0
  0
VERTEX
  8
0
 10
1.9975
 20
0.947374
 30
0.0
 40
0
 41
0
  0
VERTEX
  8
0
 10
1.98611
 20
0.869846
 30
0.0
 40
0
 41
0
  0
VERTEX
  8
0
 10
1.97765
 20
0.791667
 30
0.0
 40
0
 41
0
  0
VERTEX
  8
0
 10
1.986
 20
0.745443
 30
0.0
 40
0
 41
0
  0
VERTEX
  8
0
 10
1.98383
 20
0.69911
 30
0.0
 40
0
 41
0
  0
VERTEX
  8
0
 10
1.97287
 20
0.653808
 30
0.0
 40
0
 41
0
  0
VERTEX
  8
0
 10
1.95503
 20
0.610406
 30
0.0
 40
0
 41
0
  0
VERTEX
  8
0
 10
1.93392
 20
0.610894
 30
0.0
 40
0
 41
0
  0
VERTEX
  8
0
 10
1.91211
 20
0.61046
 30
0.0
 40
0
 41
0
  0
VERTEX
  8
0
 10
1.89236
 20
0.614692
 30
0.0
 40
0
 41
0
  0
VERTEX
  8
0
 10
1.8775
 20
0.629286
 30
0.0
 40
0
 41
0
  0
VERTEX
  8
0
 10
1.86724
 20
0.710286
 30
0.0
 40
0
 41
0
  0
VERTEX
  8
0
 10
1.86094
 20
0.791396
 30
0.0
 40
0
 41
0
  0
VERTEX
  8
0
 10
1.84978
 20
0.936686
 30
0.0
 40
0
 41
0
  0
VERTEX
  8
0
 10
1.83182
 20
1.08154
 30
0.0
 40
0
 41
0
  0
VERTEX
  8
0
 10
1.8029
 20
1.31624
 30
0.0
 40
0
 41
0
  0
VERTEX
  8
0
 10
1.79363
 20
1.35612
 30
0.0
 40
0
 41
0
  0
VERTEX
  8
0
 10
1.79189
 20
1.39692
 30
0.0
 40
0
 41
0
  0
VERTEX
  8
0
 10
1.79069
 20
1.43782
 30
0.0
 40
0
 41
0
  0
VERTEX
  8
0
 10
1.78321
 20
1.47792
 30
0.0
 40
0
 41
0
  0
VERTEX
  8
0
 10
1.77772
 20
1.54769
 30
0.0
 40
0
 41
0
  0
VERTEX
  8
0
 10
1.76975
 20
1.61697
 30
0.0
 40
0
 41
0
  0
VERTEX
  8
0
 10
1.75325
 20
1.68261
 30
0.0
 40
0
 41
0
  0
VERTEX
  8
0
 10
1.75
 20
1.74983
 30
0.0
 40
0
 41
0
  0
VERTEX
  8
0
 10
1.73731
 20
1.882
 30
0.0
 40
0
 41
0
  0
VERTEX
  8
0
 10
1.72222
 20
2.01389
 30
0.0
 40
0
 41
0
  0
VERTEX
  8
0
 10
1.70964
 20
2.13206
 30
0.0
 40
0
 41
0
  0
VERTEX
  8
0
 10
1.69444
 20
2.25
 30
0.0
 40
0
 41
0
  0
VERTEX
  8
0
 10
1.6869
 20
2.32579
 30
0.0
 40
0
 41
0
  0
VERTEX
  8
0
 10
1.67469
 20
2.40126
 30
0.0
 40
0
 41
0
  0
VERTEX
  8
0
 10
1.64318
 20
2.40039
 30
0.0
 40
0
 41
0
  0
VERTEX
  8
0
 10
1.61106
 20
2.36957
 30
0.0
 40
0
 41
0
  0
VERTEX
  8
0
 10
1.58365
 20
2.33419
 30
0.0
 40
0
 41
0
  0
VERTEX
  8
0
 10
1.56386
 20
2.29465
 30
0.0
 40
0
 41
0
  0
VERTEX
  8
0
 10
1.55458
 20
2.25108
 30
0.0
 40
0
 41
0
  0
VERTEX
  8
0
 10
1.54904
 20
2.22601
 30
0.0
 40
0
 41
0
  0
VERTEX
  8
0
 10
1.53879
 20
2.20231
 30
0.0
 40
0
 41
0
  0
VERTEX
  8
0
 10
1.52968
 20
2.17833
 30
0.0
 40
0
 41
0
  0
VERTEX
  8
0
 10
1.52794
 20
2.15261
 30
0.0
 40
0
 41
0
  0
VERTEX
  8
0
 10
1.51953
 20
2.07671
 30
0.0
 40
0
 41
0
  0
VERTEX
  8
0
 10
1.51361
 20
2.00043
 30
0.0
 40
0
 41
0
  0
VERTEX
  8
0
 10
1.51269
 20
1.82503
 30
0.0
 40
0
 41
0
  0
VERTEX
  8
0
 10
1.52636
 20
1.6511
 30
0.0
 40
0
 41
0
  0
VERTEX
  8
0
 10
1.54275
 20
1.52143
 30
0.0
 40
0
 41
0
  0
VERTEX
  8
0
 10
1.55751
 20
1.39154
 30
0.0
 40
0
 41
0
  0
VERTEX
  8
0
 10
1.57661
 20
1.33029
 30
0.0
 40
0
 41
0
  0
VERTEX
  8
0
 10
1.58583
 20
1.26682
 30
0.0
 40
0
 41
0
  0
VERTEX
  8
0
 10
1.60568
 20
1.19933
 30
0.0
 40
0
 41
0
  0
VERTEX
  8
0
 10
1.61317
 20
1.12945
 30
0.0
 40
0
 41
0
  0
VERTEX
  8
0
 10
1.63428
 20
1.11312
 30
0.0
 40
0
 41
0
  0
VERTEX
  8
0
 10
1.66108
 20
1.10965
 30
0.0
 40
0
 41
0
  0
VERTEX
  8
0
 10
1.69006
 20
1.11149
 30
0.0
 40
0
 41
0
  0
VERTEX
  8
0
 10
1.71767
 20
1.11095
 30
0.0
 40
0
 41
0
  0
VERTEX
  8
0
 10
1.75592
 20
1.06641
 30
0.0
 40
0
 41
0
  0
VERTEX
  8
0
 10
1.77626
 20
1.01139
 30
0.0
 40
0
 41
0
  0
VERTEX
  8
0
 10
1.77735
 20
0.833604
 30
0.0
 40
0
 41
0
  0
VERTEX
  8
0
 10
1.78581
 20
0.65625
 30
0.0
 40
0
 41
0
  0
VERTEX
  8
0
 10
1.76281
 20
0.61084
 30
0.0
 40
0
 41
0
  0
VERTEX
  8
0
 10
1.41499
 20
0.611544
 30
0.0
 40
0
 41
0
  0
VERTEX
  8
0
 10
1.42497
 20
0.692871
 30
0.0
 40
0
 41
0
  0
VERTEX
  8
0
 10
1.43349
 20
0.774306
 30
0.0
 40
0
 41
0
  0
VERTEX
  8
0
 10
1.44189
 20
0.813803
 30
0.0
 40
0
 41
0
  0
VERTEX
  8
0
 10
1.44433
 20
0.854113
 30
0.0
 40
0
 41
0
  0
VERTEX
  8
0
 10
1.44683
 20
0.894368
 30
0.0
 40
0
 41
0
  0
VERTEX
  8
0
 10
1.45568
 20
0.933757
 30
0.0
 40
0
 41
0
  0
VERTEX
  8
0
 10
1.45893
 20
1.0357
 30
0.0
 40
0
 41
0
  0
VERTEX
  8
0
 10
1.45751
 20
1.13764
 30
0.0
 40
0
 41
0
  0
VERTEX
  8
0
 10
1.44271
 20
1.26557
 30
0.0
 40
0
 41
0
  0
VERTEX
  8
0
 10
1.41917
 20
1.39208
 30
0.0
 40
0
 41
0
  0
VERTEX
  8
0
 10
1.39225
 20
1.5344
 30
0.0
 40
0
 41
0
  0
VERTEX
  8
0
 10
1.35737
 20
1.6754
 30
0.0
 40
0
 41
0
  0
VERTEX
  8
0
 10
1.34478
 20
1.69721
 30
0.0
 40
0
 41
0
  0
VERTEX
  8
0
 10
1.32612
 20
1.7136
 30
0.0
 40
0
 41
0
  0
VERTEX
  8
0
 10
1.30604
 20
1.729
 30
0.0
 40
0
 41
0
  0
VERTEX
  8
0
 10
1.28917
 20
1.7475
 30
0.0
 40
0
 41
0
  0
VERTEX
  8
0
 10
1.26248
 20
1.7831
 30
0.0
 40
0
 41
0
  0
VERTEX
  8
0
 10
1.22873
 20
1.81179
 30
0.0
 40
0
 41
0
  0
VERTEX
  8
0
 10
1.19385
 20
1.83951
 30
0.0
 40
0
 41
0
  0
VERTEX
  8
0
 10
1.16374
 20
1.87235
 30
0.0
 40
0
 41
0
  0
VERTEX
  8
0
 10
1.095
 20
1.979
 30
0.0
 40
0
 41
0
  0
VERTEX
  8
0
 10
1.03233
 20
2.08919
 30
0.0
 40
0
 41
0
  0
VERTEX
  8
0
 10
1.01731
 20
2.16932
 30
0.0
 40
0
 41
0
  0
VERTEX
  8
0
 10
1.01335
 20
2.25054
 30
0.0
 40
0
 41
0
  0
VERTEX
  8
0
 10
1.01579
 20
2.28683
 30
0.0
 40
0
 41
0
  0
VERTEX
  8
0
 10
1.0281
 20
2.32058
 30
0.0
 40
0
 41
0
  0
VERTEX
  8
0
 10
1.04395
 20
2.35357
 30
0.0
 40
0
 41
0
  0
VERTEX
  8
0
 10
1.05724
 20
2.38738
 30
0.0
 40
0
 41
0
  0
VERTEX
  8
0
 10
1.11334
 20
2.4591
 30
0.0
 40
0
 41
0
  0
VERTEX
  8
0
 10
1.1875
 20
2.5121
 30
0.0
 40
0
 41
0
  0
VERTEX
  8
0
 10
1.27338
 20
2.54232
 30
0.0
 40
0
 41
0
  0
VERTEX
  8
0
 10
1.36458
 20
2.54557
 30
0.0
 40
0
 41
0
  0
VERTEX
  8
0
 10
1.41228
 20
2.53879
 30
0.0
 40
0
 41
0
  0
VERTEX
  8
0
 10
1.45643
 20
2.52035
 30
0.0
 40
0
 41
0
  0
VERTEX
  8
0
 10
1.49783
 20
2.49485
 30
0.0
 40
0
 41
0
  0
VERTEX
  8
0
 10
1.53722
 20
2.46696
 30
0.0
 40
0
 41
0
  0
VERTEX
  8
0
 10
1.54406
 20
2.5134
 30
0.0
 40
0
 41
0
  0
VERTEX
  8
0
 10
1.56369
 20
2.55528
 30
0.0
 40
0
 41
0
  0
VERTEX
  8
0
 10
1.5899
 20
2.59451
 30
0.0
 40
0
 41
0
  0
VERTEX
  8
0
 10
1.61654
 20
2.63303
 30
0.0
 40
0
 41
0
  0
VERTEX
  8
0
 10
1.6735
 20
2.66689
 30
0.0
 40
0
 41
0
  0
VERTEX
  8
0
 10
1.72874
 20
2.70335
 30
0.0
 40
0
 41
0
  0
SEQEND
 8
0
  0
POLYLINE
  8
0
 62
     0
 66
     1
 10
0
 20
0
 30
0.0
 70
     1
 40
0
 41
0
  0
VERTEX
  8
0
 10
3.55539
 20
1.93056
 30
0.0
 40
0
 41
0
  0
VERTEX
  8
0
 10
4.01389
 20
1.93056
 30
0.0
 40
0
 41
0
  0
VERTEX
  8
0
 10
4.01303
 20
1.89501
 30
0.0
 40
0
 41
0
  0
VERTEX
  8
0
 10
4.01579
 20
1.85769
 30
0.0
 40
0
 41
0
  0
VERTEX
  8
0
 10
4.01297
 20
1.82249
 30
0.0
 40
0
 41
0
  0
VERTEX
  8
0
 10
3.99571
 20
1.79318
 30
0.0
 40
0
 41
0
  0
VERTEX
  8
0
 10
3.72222
 20
1.79167
 30
0.0
 40
0
 41
0
  0
VERTEX
  8
0
 10
3.72222
 20
1.375
 30
0.0
 40
0
 41
0
  0
VERTEX
  8
0
 10
3.96778
 20
1.37348
 30
0.0
 40
0
 41
0
  0
VERTEX
  8
0
 10
3.98546
 20
1.34087
 30
0.0
 40
0
 41
0
  0
VERTEX
  8
0
 10
3.98801
 20
1.30214
 30
0.0
 40
0
 41
0
  0
VERTEX
  8
0
 10
3.98492
 20
1.26128
 30
0.0
 40
0
 41
0
  0
VERTEX
  8
0
 10
3.98594
 20
1.22222
 30
0.0
 40
0
 41
0
  0
VERTEX
  8
0
 10
3.72222
 20
1.22222
 30
0.0
 40
0
 41
0
  0
VERTEX
  8
0
 10
3.72222
 20
0.777778
 30
0.0
 40
0
 41
0
  0
VERTEX
  8
0
 10
3.99556
 20
0.776367
 30
0.0
 40
0
 41
0
  0
VERTEX
  8
0
 10
4.01297
 20
0.747125
 30
0.0
 40
0
 41
0
  0
VERTEX
  8
0
 10
4.01579
 20
0.71186
 30
0.0
 40
0
 41
0
  0
VERTEX
  8
0
 10
4.01297
 20
0.674533
 30
0.0
 40
0
 41
0
  0
VERTEX
  8
0
 10
4.01372
 20
0.638889
 30
0.0
 40
0
 41
0
  0
VERTEX
  8
0
 10
3.55556
 20
0.638889
 30
0.0
 40
0
 41
0
  0
VERTEX
  8
0
 10
3.55539
 20
1.93056
 30
0.0
 40
0
 41
0
  0
SEQEND
 8
0
  0
POLYLINE
  8
0
 62
     0
 66
     1
 10
0
 20
0
 30
0.0
 70
     1
 40
0
 41
0
  0
VERTEX
  8
0
 10
7.75553
 20
1.93039
 30
0.0
 40
0
 41
0
  0
VERTEX
  8
0
 10
8.23068
 20
1.93039
 30
0.0
 40
0
 41
0
  0
VERTEX
  8
0
 10
8.27761
 20
1.88336
 30
0.0
 40
0
 41
0
  0
VERTEX
  8
0
 10
8.27626
 20
1.53222
 30
0.0
 40
0
 41
0
  0
VERTEX
  8
0
 10
8.2596
 20
1.5154
 30
0.0
 40
0
 41
0
  0
VERTEX
  8
0
 10
8.11111
 20
1.51406
 30
0.0
 40
0
 41
0
  0
VERTEX
  8
0
 10
8.11111
 20
1.79167
 30
0.0
 40
0
 41
0
  0
VERTEX
  8
0
 10
7.88889
 20
1.79167
 30
0.0
 40
0
 41
0
  0
VERTEX
  8
0
 10
7.88889
 20
0.777778
 30
0.0
 40
0
 41
0
  0
VERTEX
  8
0
 10
8.11111
 20
0.777778
 30
0.0
 40
0
 41
0
  0
VERTEX
  8
0
 10
8.11111
 20
1.08333
 30
0.0
 40
0
 41
0
  0
VERTEX
  8
0
 10
8.27778
 20
1.08333
 30
0.0
 40
0
 41
0
  0
VERTEX
  8
0
 10
8.27778
 20
0.708767
 30
0.0
 40
0
 41
0
  0
VERTEX
  8
0
 10
8.26736
 20
0.672308
 30
0.0
 40
0
 41
0
  0
VERTEX
  8
0
 10
8.24849
 20
0.638618
 30
0.0
 40
0
 41
0
  0
VERTEX
  8
0
 10
7.75553
 20
0.639051
 30
0.0
 40
0
 41
0
  0
VERTEX
  8
0
 10
7.72239
 20
0.6722
 30
0.0
 40
0
 41
0
  0
VERTEX
  8
0
 10
7.72239
 20
1.89725
 30
0.0
 40
0
 41
0
  0
VERTEX
  8
0
 10
7.75553
 20
1.93039
 30
0.0
 40
0
 41
0
  0
SEQEND
 8
0
  0
POLYLINE
  8
0
 62
     0
 66
     1
 10
0
 20
0
 30
0.0
 70
     1
 40
0
 41
0
  0
VERTEX
  8
0
 10
9.68056
 20
1.93056
 30
0.0
 40
0
 41
0
  0
VERTEX
  8
0
 10
9.84706
 20
1.93056
 30
0.0
 40
0
 41
0
  0
VERTEX
  8
0
 10
9.84765
 20
1.24387
 30
0.0
 40
0
 41
0
  0
VERTEX
  8
0
 10
9.89014
 20
1.28836
 30
0.0
 40
0
 41
0
  0
VERTEX
  8
0
 10
9.92464
 20
1.33914
 30
0.0
 40
0
 41
0
  0
VERTEX
  8
0
 10
9.956
 20
1.39247
 30
0.0
 40
0
 41
0
  0
VERTEX
  8
0
 10
9.98904
 20
1.44444
 30
0.0
 40
0
 41
0
  0
VERTEX
  8
0
 10
10.1717
 20
1.44336
 30
0.0
 40
0
 41
0
  0
VERTEX
  8
0
 10
10.1479
 20
1.39199
 30
0.0
 40
0
 41
0
  0
VERTEX
  8
0
 10
10.1166
 20
1.34516
 30
0.0
 40
0
 41
0
  0
VERTEX
  8
0
 10
10.0837
 20
1.29926
 30
0.0
 40
0
 41
0
  0
VERTEX
  8
0
 10
10.055
 20
1.25054
 30
0.0
 40
0
 41
0
  0
VERTEX
  8
0
 10
9.94168
 20
1.0835
 30
0.0
 40
0
 41
0
  0
VERTEX
  8
0
 10
10.0513
 20
0.898817
 30
0.0
 40
0
 41
0
  0
VERTEX
  8
0
 10
10.1561
 20
0.710829
 30
0.0
 40
0
 41
0
  0
VERTEX
  8
0
 10
10.1672
 20
0.676486
 30
0.0
 40
0
 41
0
  0
VERTEX
  8
0
 10
10.1676
 20
0.63916
 30
0.0
 40
0
 41
0
  0
VERTEX
  8
0
 10
10.0059
 20
0.638889
 30
0.0
 40
0
 41
0
  0
VERTEX
  8
0
 10
9.92882
 20
0.782824
 30
0.0
 40
0
 41
0
  0
VERTEX
  8
0
 10
9.8489
 20
0.924587
 30
0.0
 40
0
 41
0
  0
VERTEX
  8
0
 10
9.84722
 20
0.638889
 30
0.0
 40
0
 41
0
  0
VERTEX
  8
0
 10
9.68056
 20
0.639051
 30
0.0
 40
0
 41
0
  0
VERTEX
  8
0
 10
9.68056
 20
1.93056
 30
0.0
 40
0
 41
0
  0
SEQEND
 8
0
  0
POLYLINE
  8
0
 62
     0
 66
     1
 10
0
 20
0
 30
0.0
 70
     1
 40
0
 41
0
  0
VERTEX
  8
0
 10
4.69488
 20
1.44206
 30
0.0
 40
0
 41
0
  0
VERTEX
  8
0
 10
4.7021
 20
1.46224
 30
0.0
 40
0
 41
0
  0
VERTEX
  8
0
 10
4.71994
 20
1.47119
 30
0.0
 40
0
 41
0
  0
VERTEX
  8
0
 10
4.74257
 20
1.47331
 30
0.0
 40
0
 41
0
  0
VERTEX
  8
0
 10
4.76406
 20
1.47304
 30
0.0
 40
0
 41
0
  0
VERTEX
  8
0
 10
4.82628
 20
1.46669
 30
0.0
 40
0
 41
0
  0
VERTEX
  8
0
 10
4.88835
 20
1.45806
 30
0.0
 40
0
 41
0
  0
VERTEX
  8
0
 10
5.16515
 20
1.45861
 30
0.0
 40
0
 41
0
  0
VERTEX
  8
0
 10
5.18403
 20
1.42503
 30
0.0
 40
0
 41
0
  0
VERTEX
  8
0
 10
5.19444
 20
1.38846
 30
0.0
 40
0
 41
0
  0
VERTEX
  8
0
 10
5.19444
 20
0.778049
 30
0.0
 40
0
 41
0
  0
VERTEX
  8
0
 10
5.183
 20
0.737847
 30
0.0
 40
0
 41
0
  0
VERTEX
  8
0
 10
5.16217
 20
0.701714
 30
0.0
 40
0
 41
0
  0
VERTEX
  8
0
 10
5.13531
 20
0.669
 30
0.0
 40
0
 41
0
  0
VERTEX
  8
0
 10
5.10596
 20
0.638889
 30
0.0
 40
0
 41
0
  0
VERTEX
  8
0
 10
4.84722
 20
0.638889
 30
0.0
 40
0
 41
0
  0
VERTEX
  8
0
 10
4.84722
 20
0.333333
 30
0.0
 40
0
 41
0
  0
VERTEX
  8
0
 10
4.69444
 20
0.333333
 30
0.0
 40
0
 41
0
  0
VERTEX
  8
0
 10
4.69488
 20
1.44206
 30
0.0
 40
0
 41
0
  0
SEQEND
 8
0
  0
POLYLINE
  8
0
 62
     0
 66
     1
 10
0
 20
0
 30
0.0
 70
     1
 40
0
 41
0
  0
VERTEX
  8
0
 10
5.33637
 20
1.47239
 30
0.0
 40
0
 41
0
  0
VERTEX
  8
0
 10
5.41347
 20
1.47271
 30
0.0
 40
0
 41
0
  0
VERTEX
  8
0
 10
5.48931
 20
1.46099
 30
0.0
 40
0
 41
0
  0
VERTEX
  8
0
 10
5.74447
 20
1.45817
 30
0.0
 40
0
 41
0
  0
VERTEX
  8
0
 10
5.77761
 20
1.42503
 30
0.0
 40
0
 41
0
  0
VERTEX
  8
0
 10
5.77778
 20
1.15294
 30
0.0
 40
0
 41
0
  0
VERTEX
  8
0
 10
5.73872
 20
1.15392
 30
0.0
 40
0
 41
0
  0
VERTEX
  8
0
 10
5.69786
 20
1.15082
 30
0.0
 40
0
 41
0
  0
VERTEX
  8
0
 10
5.65907
 20
1.15332
 30
0.0
 40
0
 41
0
  0
VERTEX
  8
0
 10
5.62642
 20
1.17095
 30
0.0
 40
0
 41
0
  0
VERTEX
  8
0
 10
5.62517
 20
1.31928
 30
0.0
 40
0
 41
0
  0
VERTEX
  8
0
 10
5.48611
 20
1.31928
 30
0.0
 40
0
 41
0
  0
VERTEX
  8
0
 10
5.48611
 20
0.638889
 30
0.0
 40
0
 41
0
  0
VERTEX
  8
0
 10
5.31944
 20
0.638889
 30
0.0
 40
0
 41
0
  0
VERTEX
  8
0
 10
5.31928
 20
1.40294
 30
0.0
 40
0
 41
0
  0
VERTEX
  8
0
 10
5.32406
 20
1.43842
 30
0.0
 40
0
 41
0
  0
VERTEX
  8
0
 10
5.33637
 20
1.47239
 30
0.0
 40
0
 41
0
  0
SEQEND
 8
0
  0
POLYLINE
  8
0
 62
     0
 66
     1
 10
0
 20
0
 30
0.0
 70
     1
 40
0
 41
0
  0
VERTEX
  8
0
 10
4.08724
 20
1.42156
 30
0.0
 40
0
 41
0
  0
VERTEX
  8
0
 10
4.08344
 20
1.43403
 30
0.0
 40
0
 41
0
  0
VERTEX
  8
0
 10
4.08908
 20
1.4464
 30
0.0
 40
0
 41
0
  0
VERTEX
  8
0
 10
4.10021
 20
1.4554
 30
0.0
 40
0
 41
0
  0
VERTEX
  8
0
 10
4.1129
 20
1.45779
 30
0.0
 40
0
 41
0
  0
VERTEX
  8
0
 10
4.24892
 20
1.45861
 30
0.0
 40
0
 41
0
  0
VERTEX
  8
0
 10
4.2985
 20
1.3431
 30
0.0
 40
0
 41
0
  0
VERTEX
  8
0
 10
4.354
 20
1.23058
 30
0.0
 40
0
 41
0
  0
VERTEX
  8
0
 10
4.39697
 20
1.34646
 30
0.0
 40
0
 41
0
  0
VERTEX
  8
0
 10
4.44971
 20
1.45833
 30
0.0
 40
0
 41
0
  0
VERTEX
  8
0
 10
4.58154
 20
1.45779
 30
0.0
 40
0
 41
0
  0
VERTEX
  8
0
 10
4.59413
 20
1.45535
 30
0.0
 40
0
 41
0
  0
VERTEX
  8
0
 10
4.60525
 20
1.4464
 30
0.0
 40
0
 41
0
  0
VERTEX
  8
0
 10
4.61089
 20
1.43408
 30
0.0
 40
0
 41
0
  0
VERTEX
  8
0
 10
4.60721
 20
1.42156
 30
0.0
 40
0
 41
0
  0
VERTEX
  8
0
 10
4.52599
 20
1.25071
 30
0.0
 40
0
 41
0
  0
VERTEX
  8
0
 10
4.44428
 20
1.08029
 30
0.0
 40
0
 41
0
  0
VERTEX
  8
0
 10
4.44422
 20
1.05111
 30
0.0
 40
0
 41
0
  0
VERTEX
  8
0
 10
4.45335
 20
1.02349
 30
0.0
 40
0
 41
0
  0
VERTEX
  8
0
 10
4.50732
 20
0.909343
 30
0.0
 40
0
 41
0
  0
VERTEX
  8
0
 10
4.55724
 20
0.793349
 30
0.0
 40
0
 41
0
  0
VERTEX
  8
0
 10
4.57351
 20
0.755371
 30
0.0
 40
0
 41
0
  0
VERTEX
  8
0
 10
4.59278
 20
0.718425
 30
0.0
 40
0
 41
0
  0
VERTEX
  8
0
 10
4.60824
 20
0.680447
 30
0.0
 40
0
 41
0
  0
VERTEX
  8
0
 10
4.61317
 20
0.639322
 30
0.0
 40
0
 41
0
  0
VERTEX
  8
0
 10
4.449
 20
0.638889
 30
0.0
 40
0
 41
0
  0
VERTEX
  8
0
 10
4.35514
 20
0.861111
 30
0.0
 40
0
 41
0
  0
VERTEX
  8
0
 10
4.33832
 20
0.860568
 30
0.0
 40
0
 41
0
  0
VERTEX
  8
0
 10
4.28819
 20
0.751085
 30
0.0
 40
0
 41
0
  0
VERTEX
  8
0
 10
4.24556
 20
0.638726
 30
0.0
 40
0
 41
0
  0
VERTEX
  8
0
 10
4.06446
 20
0.639974
 30
0.0
 40
0
 41
0
  0
VERTEX
  8
0
 10
4.23986
 20
1.02512
 30
0.0
 40
0
 41
0
  0
VERTEX
  8
0
 10
4.25038
 20
1.05279
 30
0.0
 40
0
 41
0
  0
VERTEX
  8
0
 10
4.24457
 20
1.08105
 30
0.0
 40
0
 41
0
  0
VERTEX
  8
0
 10
4.23133
 20
1.10916
 30
0.0
 40
0
 41
0
  0
VERTEX
  8
0
 10
4.21972
 20
1.13639
 30
0.0
 40
0
 41
0
  0
VERTEX
  8
0
 10
4.15403
 20
1.27935
 30
0.0
 40
0
 41
0
  0
VERTEX
  8
0
 10
4.08724
 20
1.42156
 30
0.0
 40
0
 41
0
  0
SEQEND
 8
0
  0
POLYLINE
  8
0
 62
     0
 66
     1
 10
0
 20
0
 30
0.0
 70
     1
 40
0
 41
0
  0
VERTEX
  8
0
 10
5.92219
 20
1.45817
 30
0.0
 40
0
 41
0
  0
VERTEX
  8
0
 10
6.32781
 20
1.45817
 30
0.0
 40
0
 41
0
  0
VERTEX
  8
0
 10
6.36094
 20
1.42503
 30
0.0
 40
0
 41
0
  0
VERTEX
  8
0
 10
6.36094
 20
1.03331
 30
0.0
 40
0
 41
0
  0
VERTEX
  8
0
 10
6.32781
 20
1.00016
 30
0.0
 40
0
 41
0
  0
VERTEX
  8
0
 10
6.04167
 20
1
 30
0.0
 40
0
 41
0
  0
VERTEX
  8
0
 10
6.04167
 20
0.763889
 30
0.0
 40
0
 41
0
  0
VERTEX
  8
0
 10
6.2085
 20
0.763889
 30
0.0
 40
0
 41
0
  0
VERTEX
  8
0
 10
6.20796
 20
0.802789
 30
0.0
 40
0
 41
0
  0
VERTEX
  8
0
 10
6.2079
 20
0.841851
 30
0.0
 40
0
 41
0
  0
VERTEX
  8
0
 10
6.21229
 20
0.880154
 30
0.0
 40
0
 41
0
  0
VERTEX
  8
0
 10
6.22526
 20
0.916829
 30
0.0
 40
0
 41
0
  0
VERTEX
  8
0
 10
6.36111
 20
0.916667
 30
0.0
 40
0
 41
0
  0
VERTEX
  8
0
 10
6.36296
 20
0.776042
 30
0.0
 40
0
 41
0
  0
VERTEX
  8
0
 10
6.34418
 20
0.638726
 30
0.0
 40
0
 41
0
  0
VERTEX
  8
0
 10
5.90847
 20
0.639051
 30
0.0
 40
0
 41
0
  0
VERTEX
  8
0
 10
5.87517
 20
0.6722
 30
0.0
 40
0
 41
0
  0
VERTEX
  8
0
 10
5.87517
 20
1.41114
 30
0.0
 40
0
 41
0
  0
VERTEX
  8
0
 10
5.92219
 20
1.45817
 30
0.0
 40
0
 41
0
  0
SEQEND
 8
0
  0
POLYLINE
  8
0
 62
     0
 66
     1
 10
0
 20
0
 30
0.0
 70
     1
 40
0
 41
0
  0
VERTEX
  8
0
 10
6.54719
 20
1.45817
 30
0.0
 40
0
 41
0
  0
VERTEX
  8
0
 10
6.92503
 20
1.45817
 30
0.0
 40
0
 41
0
  0
VERTEX
  8
0
 10
6.97206
 20
1.41114
 30
0.0
 40
0
 41
0
  0
VERTEX
  8
0
 10
6.97222
 20
1.16683
 30
0.0
 40
0
 41
0
  0
VERTEX
  8
0
 10
6.93317
 20
1.16775
 30
0.0
 40
0
 41
0
  0
VERTEX
  8
0
 10
6.89231
 20
1.16466
 30
0.0
 40
0
 41
0
  0
VERTEX
  8
0
 10
6.85357
 20
1.16721
 30
0.0
 40
0
 41
0
  0
VERTEX
  8
0
 10
6.82096
 20
1.18484
 30
0.0
 40
0
 41
0
  0
VERTEX
  8
0
 10
6.81961
 20
1.31928
 30
0.0
 40
0
 41
0
  0
VERTEX
  8
0
 10
6.66667
 20
1.31944
 30
0.0
 40
0
 41
0
  0
VERTEX
  8
0
 10
6.66667
 20
1.21153
 30
0.0
 40
0
 41
0
  0
VERTEX
  8
0
 10
6.75103
 20
1.14882
 30
0.0
 40
0
 41
0
  0
VERTEX
  8
0
 10
6.83138
 20
1.08095
 30
0.0
 40
0
 41
0
  0
VERTEX
  8
0
 10
6.87131
 20
1.05073
 30
0.0
 40
0
 41
0
  0
VERTEX
  8
0
 10
6.91297
 20
1.02121
 30
0.0
 40
0
 41
0
  0
VERTEX
  8
0
 10
6.94889
 20
0.986925
 30
0.0
 40
0
 41
0
  0
VERTEX
  8
0
 10
6.97151
 20
0.942383
 30
0.0
 40
0
 41
0
  0
VERTEX
  8
0
 10
6.97206
 20
0.6722
 30
0.0
 40
0
 41
0
  0
VERTEX
  8
0
 10
6.93892
 20
0.639051
 30
0.0
 40
0
 41
0
  0
VERTEX
  8
0
 10
6.53331
 20
0.639051
 30
0.0
 40
0
 41
0
  0
VERTEX
  8
0
 10
6.50017
 20
0.6722
 30
0.0
 40
0
 41
0
  0
VERTEX
  8
0
 10
6.5
 20
0.944282
 30
0.0
 40
0
 41
0
  0
VERTEX
  8
0
 10
6.65278
 20
0.944444
 30
0.0
 40
0
 41
0
  0
VERTEX
  8
0
 10
6.65278
 20
0.763889
 30
0.0
 40
0
 41
0
  0
VERTEX
  8
0
 10
6.81944
 20
0.763889
 30
0.0
 40
0
 41
0
  0
VERTEX
  8
0
 10
6.81944
 20
0.885688
 30
0.0
 40
0
 41
0
  0
VERTEX
  8
0
 10
6.58664
 20
1.07292
 30
0.0
 40
0
 41
0
  0
VERTEX
  8
0
 10
6.56196
 20
1.09478
 30
0.0
 40
0
 41
0
  0
VERTEX
  8
0
 10
6.53543
 20
1.11491
 30
0.0
 40
0
 41
0
  0
VERTEX
  8
0
 10
6.51303
 20
1.13802
 30
0.0
 40
0
 41
0
  0
VERTEX
  8
0
 10
6.50082
 20
1.16862
 30
0.0
 40
0
 41
0
  0
VERTEX
  8
0
 10
6.50017
 20
1.41114
 30
0.0
 40
0
 41
0
  0
VERTEX
  8
0
 10
6.54719
 20
1.45817
 30
0.0
 40
0
 41
0
  0
SEQEND
 8
0
  0
POLYLINE
  8
0
 62
     0
 66
     1
 10
0
 20
0
 30
0.0
 70
     1
 40
0
 41
0
  0
VERTEX
  8
0
 10
7.11442
 20
1.44168
 30
0.0
 40
0
 41
0
  0
VERTEX
  8
0
 10
7.14632
 20
1.45421
 30
0.0
 40
0
 41
0
  0
VERTEX
  8
0
 10
7.18012
 20
1.45861
 30
0.0
 40
0
 41
0
  0
VERTEX
  8
0
 10
7.53614
 20
1.45817
 30
0.0
 40
0
 41
0
  0
VERTEX
  8
0
 10
7.56928
 20
1.42503
 30
0.0
 40
0
 41
0
  0
VERTEX
  8
0
 10
7.56944
 20
1.16683
 30
0.0
 40
0
 41
0
  0
VERTEX
  8
0
 10
7.53039
 20
1.16775
 30
0.0
 40
0
 41
0
  0
VERTEX
  8
0
 10
7.48953
 20
1.16466
 30
0.0
 40
0
 41
0
  0
VERTEX
  8
0
 10
7.45079
 20
1.16726
 30
0.0
 40
0
 41
0
  0
VERTEX
  8
0
 10
7.41818
 20
1.185
 30
0.0
 40
0
 41
0
  0
VERTEX
  8
0
 10
7.41683
 20
1.31928
 30
0.0
 40
0
 41
0
  0
VERTEX
  8
0
 10
7.26389
 20
1.31944
 30
0.0
 40
0
 41
0
  0
VERTEX
  8
0
 10
7.26389
 20
1.21181
 30
0.0
 40
0
 41
0
  0
VERTEX
  8
0
 10
7.37056
 20
1.13498
 30
0.0
 40
0
 41
0
  0
VERTEX
  8
0
 10
7.47032
 20
1.05159
 30
0.0
 40
0
 41
0
  0
VERTEX
  8
0
 10
7.56944
 20
0.967339
 30
0.0
 40
0
 41
0
  0
VERTEX
  8
0
 10
7.56961
 20
0.708171
 30
0.0
 40
0
 41
0
  0
VERTEX
  8
0
 10
7.56467
 20
0.672743
 30
0.0
 40
0
 41
0
  0
VERTEX
  8
0
 10
7.55251
 20
0.638726
 30
0.0
 40
0
 41
0
  0
VERTEX
  8
0
 10
7.12651
 20
0.638618
 30
0.0
 40
0
 41
0
  0
VERTEX
  8
0
 10
7.10487
 20
0.678222
 30
0.0
 40
0
 41
0
  0
VERTEX
  8
0
 10
7.09694
 20
0.721789
 30
0.0
 40
0
 41
0
  0
VERTEX
  8
0
 10
7.09864
 20
0.926269
 30
0.0
 40
0
 41
0
  0
VERTEX
  8
0
 10
7.13129
 20
0.943956
 30
0.0
 40
0
 41
0
  0
VERTEX
  8
0
 10
7.17003
 20
0.946506
 30
0.0
 40
0
 41
0
  0
VERTEX
  8
0
 10
7.21089
 20
0.943414
 30
0.0
 40
0
 41
0
  0
VERTEX
  8
0
 10
7.25
 20
0.944282
 30
0.0
 40
0
 41
0
  0
VERTEX
  8
0
 10
7.25
 20
0.763889
 30
0.0
 40
0
 41
0
  0
VERTEX
  8
0
 10
7.41667
 20
0.763889
 30
0.0
 40
0
 41
0
  0
VERTEX
  8
0
 10
7.41667
 20
0.88585
 30
0.0
 40
0
 41
0
  0
VERTEX
  8
0
 10
7.3565
 20
0.931207
 30
0.0
 40
0
 41
0
  0
VERTEX
  8
0
 10
7.30126
 20
0.982368
 30
0.0
 40
0
 41
0
  0
VERTEX
  8
0
 10
7.24978
 20
1.02067
 30
0.0
 40
0
 41
0
  0
VERTEX
  8
0
 10
7.19906
 20
1.06022
 30
0.0
 40
0
 41
0
  0
VERTEX
  8
0
 10
7.15175
 20
1.1033
 30
0.0
 40
0
 41
0
  0
VERTEX
  8
0
 10
7.11057
 20
1.15234
 30
0.0
 40
0
 41
0
  0
VERTEX
  8
0
 10
7.09722
 20
1.1926
 30
0.0
 40
0
 41
0
  0
VERTEX
  8
0
 10
7.09694
 20
1.23557
 30
0.0
 40
0
 41
0
  0
VERTEX
  8
0
 10
7.09685
 20
1.28765
 30
0.0
 40
0
 41
0
  0
VERTEX
  8
0
 10
7.09674
 20
1.33979
 30
0.0
 40
0
 41
0
  0
VERTEX
  8
0
 10
7.10101
 20
1.39139
 30
0.0
 40
0
 41
0
  0
VERTEX
  8
0
 10
7.11442
 20
1.44168
 30
0.0
 40
0
 41
0
  0
SEQEND
 8
0
  0
POLYLINE
  8
0
 62
     0
 66
     1
 10
0
 20
0
 30
0.0
 70
     1
 40
0
 41
0
  0
VERTEX
  8
0
 10
8.44997
 20
1.44428
 30
0.0
 40
0
 41
0
  0
VERTEX
  8
0
 10
8.88336
 20
1.44428
 30
0.0
 40
0
 41
0
  0
VERTEX
  8
0
 10
8.9165
 20
1.41114
 30
0.0
 40
0
 41
0
  0
VERTEX
  8
0
 10
8.9165
 20
0.6722
 30
0.0
 40
0
 41
0
  0
VERTEX
  8
0
 10
8.88336
 20
0.639051
 30
0.0
 40
0
 41
0
  0
VERTEX
  8
0
 10
8.45221
 20
0.638889
 30
0.0
 40
0
 41
0
  0
VERTEX
  8
0
 10
8.41667
 20
0.674425
 30
0.0
 40
0
 41
0
  0
VERTEX
  8
0
 10
8.41683
 20
1.41114
 30
0.0
 40
0
 41
0
  0
VERTEX
  8
0
 10
8.44997
 20
1.44428
 30
0.0
 40
0
 41
0
  0
SEQEND
 8
0
  0
POLYLINE
  8
0
 62
     0
 66
     1
 10
0
 20
0
 30
0.0
 70
     1
 40
0
 41
0
  0
VERTEX
  8
0
 10
9.08886
 20
1.44417
 30
0.0
 40
0
 41
0
  0
VERTEX
  8
0
 10
9.52225
 20
1.44417
 30
0.0
 40
0
 41
0
  0
VERTEX
  8
0
 10
9.55528
 20
1.41114
 30
0.0
 40
0
 41
0
  0
VERTEX
  8
0
 10
9.55539
 20
0.6722
 30
0.0
 40
0
 41
0
  0
VERTEX
  8
0
 10
9.52225
 20
0.639051
 30
0.0
 40
0
 41
0
  0
VERTEX
  8
0
 10
9.08886
 20
0.639051
 30
0.0
 40
0
 41
0
  0
VERTEX
  8
0
 10
9.05572
 20
0.6722
 30
0.0
 40
0
 41
0
  0
VERTEX
  8
0
 10
9.05583
 20
1.41114
 30
0.0
 40
0
 41
0
  0
VERTEX
  8
0
 10
9.08886
 20
1.44417
 30
0.0
 40
0
 41
0
  0
SEQEND
 8
0
  0
POLYLINE
  8
0
 62
     7
 66
     1
 10
0
 20
0
 30
0.0
 70
     1
 40
0
 41
0
  0
VERTEX
  8
0
 10
6.04167
 20
1.31928
 30
0.0
 40
0
 41
0
  0
VERTEX
  8
0
 10
6.20817
 20
1.31944
 30
0.0
 40
0
 41
0
  0
VERTEX
  8
0
 10
6.20833
 20
1.13889
 30
0.0
 40
0
 41
0
  0
VERTEX
  8
0
 10
6.04183
 20
1.13905
 30
0.0
 40
0
 41
0
  0
VERTEX
  8
0
 10
6.04167
 20
1.31928
 30
0.0
 40
0
 41
0
  0
SEQEND
 8
0
  0
POLYLINE
  8
0
 62
     7
 66
     1
 10
0
 20
0
 30
0.0
 70
     1
 40
0
 41
0
  0
VERTEX
  8
0
 10
8.57124
 20
1.31874
 30
0.0
 40
0
 41
0
  0
VERTEX
  8
0
 10
8.76318
 20
1.31874
 30
0.0
 40
0
 41
0
  0
VERTEX
  8
0
 10
8.76318
 20
0.76595
 30
0.0
 40
0
 41
0
  0
VERTEX
  8
0
 10
8.5714
 20
0.76595
 30
0.0
 40
0
 41
0
  0
VERTEX
  8
0
 10
8.57124
 20
1.31874
 30
0.0
 40
0
 41
0
  0
SEQEND
 8
0
  0
POLYLINE
  8
0
 62
     7
 66
     1
 10
0
 20
0
 30
0.0
 70
     1
 40
0
 41
0
  0
VERTEX
  8
0
 10
9.20888
 20
1.31901
 30
0.0
 40
0
 41
0
  0
VERTEX
  8
0
 10
9.38846
 20
1.3189
 30
0.0
 40
0
 41
0
  0
VERTEX
  8
0
 10
9.38846
 20
0.765136
 30
0.0
 40
0
 41
0
  0
VERTEX
  8
0
 10
9.20888
 20
0.765842
 30
0.0
 40
0
 41
0
  0
VERTEX
  8
0
 10
9.20888
 20
1.31901
 30
0.0
 40
0
 41
0
  0
SEQEND
 8
0
  0
POLYLINE
  8
0
 62
     7
 66
     1
 10
0
 20
0
 30
0.0
 70
     1
 40
0
 41
0
  0
VERTEX
  8
0
 10
4.86111
 20
1.30556
 30
0.0
 40
0
 41
0
  0
VERTEX
  8
0
 10
5.02778
 20
1.30556
 30
0.0
 40
0
 41
0
  0
VERTEX
  8
0
 10
5.02778
 20
0.777778
 30
0.0
 40
0
 41
0
  0
VERTEX
  8
0
 10
4.86111
 20
0.77794
 30
0.0
 40
0
 41
0
  0
VERTEX
  8
0
 10
4.86111
 20
1.30556
 30
0.0
 40
0
 41
0
  0
SEQEND
 8
0
  0
ENDSEC
  0
EOF
